<?xml version="1.0" encoding="UTF-8" standalone="no"?>
<svg
   xmlns:dc="http://purl.org/dc/elements/1.1/"
   xmlns:cc="http://creativecommons.org/ns#"
   xmlns:rdf="http://www.w3.org/1999/02/22-rdf-syntax-ns#"
   xmlns:svg="http://www.w3.org/2000/svg"
   xmlns="http://www.w3.org/2000/svg"
   version="1.1"
   viewBox="0 0 147 22"
   height="44"
   width="294"
   id="Logo">
  <metadata
     id="metadata20">
    <rdf:RDF>
      <cc:Work
         rdf:about="">
        <dc:format>image/svg+xml</dc:format>
        <dc:type
           rdf:resource="http://purl.org/dc/dcmitype/StillImage" />
        <dc:title></dc:title>
      </cc:Work>
    </rdf:RDF>
  </metadata>
  <defs
     id="defs3">
    <style
       id="style5">
      .cls-1 {
        fill: #e1f5fe;
      }

      .cls-1, .cls-2, .cls-3, .cls-4, .cls-5, .cls-6 {
        fill-rule: evenodd;
      }

      .cls-2 {
        fill: #fff;
      }

      .cls-3 {
        fill: #b3e5fc;
      }

      .cls-4 {
        fill: #0288d1;
      }

      .cls-5 {
        fill: #0277bd;
      }

      .cls-6 {
        fill: #01579b;
      }

      .cls-7 {
        opacity: 0.4;
      }
    </style>
    <clipPath
       clipPathUnits="userSpaceOnUse"
       id="clipPath3373">
      <path
         d="M 0,700 700,700 700,0 0,0 0,700 Z"
         id="path3375" />
    </clipPath>
    <mask
       id="mask4876"
       maskUnits="userSpaceOnUse">
      <path
         clip-path="none"
         d="m 24.828764,8.048586 c -0.221988,0.04855 -3.856268,0.950197 -3.856268,0.950197 L 18.000133,4.9206058 c -0.08326,-0.1178799 -0.152583,-0.2358376 0.05548,-0.2635375 0.20806,-0.027778 3.585728,-0.6381855 3.73831,-0.6728102 0.152583,-0.034625 0.284391,-0.076252 0.471676,0.1803601 0.187207,0.2566125 2.7573,3.5094751 2.854405,3.6342801 0.0971,0.124883 -0.06925,0.2011347 -0.291237,0.2496877 m -0.634528,7.027354 c 0.09072,0.142701 0.181449,0.233503 -0.103797,0.337222 -0.285246,0.103719 -9.622346,3.254964 -9.803874,3.332773 -0.181527,0.07781 -0.32415,0.103718 -0.557575,-0.233426 -0.233426,-0.337144 -3.271226,-5.594433 -3.271226,-5.594433 l 9.897866,-2.575462 c 0.24642,-0.07781 0.324228,-0.129706 0.479845,0.116713 0.155617,0.24642 3.268036,4.473912 3.358761,4.616613 M 8.164124,12.071364 c -0.121381,0.02599 -5.8068373,1.386704 -6.1102127,1.456109 -0.3033755,0.06933 -0.3033755,0.03463 -0.3380002,-0.0694 -0.034703,-0.10403 -6.7599283,-13.9712203 -6.8532984,-14.1445777 -0.093448,-0.1733574 -0.088546,-0.3106894 0,-0.3106894 0.088468,0 5.3694121,-0.4720643 5.5562303,-0.4818682 0.1868961,-0.00988 0.1672105,0.029489 0.2359933,0.1474472 0,0 7.4485977,12.8570021 7.5786157,13.0823351 0.130018,0.225256 0.05198,0.294661 -0.06933,0.320649 M 26.618127,8.298273 C 26.396217,8.048586 23.326671,4.2062458 22.785746,3.5542882 22.244821,2.9023306 21.981206,3.0202105 21.648263,3.068763 21.31532,3.117315 17.43143,3.7692731 16.980608,3.8455255 c -0.450823,0.07633 -0.735135,0.2566903 -0.457748,0.6450326 0.246731,0.345392 2.800018,3.9652779 3.362417,4.7625039 L 9.7343,11.684811 1.6612895,-1.8120877 C 1.3399403,-2.288587 1.2731806,-2.4550972 0.5417805,-2.4217952 c -0.7314001,0.033224 -6.3329922,0.4985969 -6.7319162,0.5318989 -0.3990016,0.033302 -0.8369076,0.2108611 -0.4379837,1.1528111 0.3990018,0.94195 6.7605493,14.6504882 6.9377971,15.0494122 0.1773256,0.398925 0.6383411,1.046136 1.7177787,0.7868 1.1058925,-0.265716 4.9409876,-1.266723 7.0365236,-1.815506 1.107293,2.005125 3.365529,6.072566 3.783128,6.655352 0.557576,0.778085 0.941327,0.64939 1.797299,0.390054 0.668297,-0.202536 10.457543,-3.722827 10.898484,-3.904354 0.44094,-0.181527 0.71327,-0.311234 0.414952,-0.752175 -0.219342,-0.32415 -2.801729,-3.783751 -4.154352,-5.593654 0.926388,-0.246576 4.220645,-1.123556 4.571873,-1.218793 0.409195,-0.110955 0.46475,-0.31209 0.242763,-0.561778"
         style="opacity:0.4;fill:#ffffff;fill-opacity:1;fill-rule:nonzero;stroke:none"
         id="path4878" />
    </mask>
  </defs>
  <g
     style="display:inline"
     id="layer2">
    <path
       style="fill:#ffffff;fill-opacity:1;fill-rule:evenodd"
       id="breadcrumb-1-2"
       d="m 0.03124998,0.03125 137.18750002,0 L 147,12 137,22 0.03124998,21.96875 Z"
       class="cls-6" />
  </g>
  <g
     id="layer1">
    <path
       id="breadcrumb-5"
       d="m 110,1 9,11 -9,9 26,0 9,-9 -9,-11 -26,0 z"
       style="fill:#ffcdd2;fill-opacity:1;fill-rule:evenodd" />
    <path
       id="breadcrumb-4"
       d="m 82,1 9,11 -9,9 26,0 9,-9 -9,-11 -26,0 z"
       style="fill:#ef9a9a;fill-opacity:1;fill-rule:evenodd" />
    <path
       id="breadcrumb-3"
       d="m 54,1 9,11 -9,9 26,0 9,-9 L 80,1 54,1 Z"
       style="fill:#e57373;fill-opacity:1;fill-rule:evenodd" />
    <path
       id="breadcrumb-2"
       d="m 26,1 9,11 -9,9 26,0 9,-9 L 52,1 26,1 Z"
       style="fill:#ef5350;fill-opacity:1;fill-rule:evenodd" />
    <path
       style="fill:#e53935;fill-opacity:1;fill-rule:evenodd"
       id="breadcrumb-1"
       d="M 1,1 24,1 33,12 24,21 1,21 1,1 Z"
       class="cls-6" />
    <path
       mask="url(#mask4876)"
       style="fill:#ffffff;fill-opacity:1;fill-rule:evenodd"
       id="breadcrumb-1-1"
       d="M 1,1 24,1 33,12 24,21 1,21 1,1 Z"
       class="cls-6" />
  </g>
</svg>
